<svg xmlns="http://www.w3.org/2000/svg" fill="none" viewBox="0 0 16 15">
  <path fill="#495057" fill-rule="evenodd" d="M6.57495 1.52502c-2.27817 0-4.125 1.84683-4.125 4.125 0 1.43827.73548 2.70511 1.85436 3.44446.65091.43012 1.43039.68054 2.27064.68054.34214 0 .67356-.04149.98992-.11936C9.36531 9.21247 10.7 7.58618 10.7 5.65002c0-.37773-.0506-.74246-.1449-1.08834-.4774-1.75065-2.07957-3.03666-3.98015-3.03666zm-5.624999 4.125c0-3.1066 2.518399-5.6249956 5.624999-5.6249956 2.47312 0 4.57185 1.5954456 5.32625 3.8120856l2.4342 1.2171c.1958.09791.3391.27651.3922.48892l.75 3c.0548.2191.0079.45122-.1276.6319L13.1 12.175c-.1417.1889-.364.3-.6.3h-2.4461c-.59502 1.2839-1.89467 2.175-3.40397 2.175-2.07106 0-3.75-1.6789-3.75-3.75 0-.3096.03768-.6111.10883-.8998C1.75293 8.96949.949951 7.40367.949951 5.65002zM4.40074 10.8392c-.00054.0202-.00081.0405-.00081.0608 0 1.2427 1.00736 2.25 2.25 2.25.68282 0 1.29539-.3044 1.70831-.7854-.07976-.0488-.15068-.1128-.20827-.1896l-.72315-.9642c-.27813.0423-.56264.0642-.85187.0642-.77006 0-1.50492-.1551-2.17421-.4358zm4.55399-.0912l.17024.227H12.125l1.8108-2.41439-.5798-2.31903-1.1561-.57804c-.0053 2.25091-1.3321 4.18999-3.24517 5.08446zM6.49997 2.87503c.27238 0 .52334.14767.65562.38576l1.875 3.375c.12905.2323.12555.51555-.00922.74458-.13476.22904-.38066.36966-.6464.36966h-3.75c-.26574 0-.51164-.14062-.6464-.36966-.13477-.22903-.13827-.51228-.00922-.74458l1.875-3.375c.13228-.23809.38324-.38576.65562-.38576zm-.60036 3.375h1.20072l-.60036-1.08066-.60036 1.08066z" clip-rule="evenodd"/>
</svg>
