<svg xmlns="http://www.w3.org/2000/svg" fill="none" viewBox="0 0 18 20">
  <path fill="#495057" fill-rule="evenodd" d="M14.6176 20H2.95096C1.57262 20 .450958 18.8792.450958 17.5V9.16667c0-1.37834 1.121662-2.5 2.500002-2.5h.83333V5c0-2.75667 2.2425-5 5-5 2.75751 0 5.00001 2.24333 5.00001 5v1.66667h.8333c1.3784 0 2.5 1.12166 2.5 2.5V17.5c0 1.3792-1.1216 2.5-2.5 2.5zM8.78429 1.66667c-1.83833 0-3.33333 1.495-3.33333 3.33333v1.66667h6.66664V5c0-1.83833-1.495-3.33333-3.33331-3.33333zm6.66671 7.5c0-.46-.3742-.83334-.8334-.83334H2.95096c-.45917 0-.83334.37334-.83334.83334V17.5c0 .4592.37417.8333.83334.8333H14.6176c.4592 0 .8334-.3741.8334-.8333V9.16667zM9.61762 13.1017V15c0 .46-.37333.8333-.83333.8333S7.95096 15.46 7.95096 15v-1.8983c-.49584-.2892-.83334-.8209-.83334-1.435 0-.9192.7475-1.6667 1.66667-1.6667s1.66671.7475 1.66671 1.6667c0 .6141-.3375 1.1458-.83338 1.435z" clip-rule="evenodd"/>
</svg>
