<svg width="17" height="5" viewBox="0 0 17 5" fill="none" xmlns="http://www.w3.org/2000/svg">
<path fill-rule="evenodd" clip-rule="evenodd" d="M14.5372 0.30305C13.3323 0.30305 12.3554 1.27988 12.3554 2.48487C12.3554 3.68985 13.3323 4.66669 14.5372 4.66669C15.7422 4.66669 16.7191 3.68985 16.7191 2.48487C16.7191 1.27988 15.7422 0.30305 14.5372 0.30305ZM8.71906 0.30305C7.51407 0.30305 6.53724 1.27988 6.53724 2.48487C6.53724 3.68985 7.51407 4.66669 8.71906 4.66669C9.92404 4.66669 10.9009 3.68985 10.9009 2.48487C10.9009 1.27988 9.92404 0.30305 8.71906 0.30305ZM0.719055 2.48487C0.719055 1.27988 1.69589 0.30305 2.90087 0.30305C4.10586 0.30305 5.08269 1.27988 5.08269 2.48487C5.08269 3.68985 4.10586 4.66669 2.90087 4.66669C1.69589 4.66669 0.719055 3.68985 0.719055 2.48487Z" fill="#495057"/>
</svg>
