<svg xmlns="http://www.w3.org/2000/svg" fill="none" viewBox="0 0 18 16">
  <path fill="#495057" fill-rule="evenodd" d="M12.9856 11.7901L9.69014 6.54878V3.69232l5.90056 9.83458-2.6051-1.7368zM5.74857 12.948h6.47673l2.1024 1.4015H3.29582l2.45275-1.4015zm2.55662-6.39922L5.02493 11.7659l-2.38004 1.36 5.6603-9.43358v2.85646zm.69248 1.50129L11.2074 11.563H6.78867l2.209-3.51293zm8.90383 6.63533L9.59181.835851C9.56965.799842 9.54057.770758 9.51287.740289 9.38615.595562 9.20541.5 8.99767.5c-.20774 0-.38779.095562-.5152.240289-.0277.030469-.05679.058861-.07825.095562L.0944987 14.6854c-.0325464.0547-.0567831.1129-.0734025.1724-.001385.0042-.001385.0083-.0020774.0125-.0186969.0727-.02215929.1475-.01661948.2223.00207743.0207.00415486.0401.00761728.0609.0124645.0789.0346238.1572.0754799.2292.0006925.0007.0006925.0007.0006925.0014.0006924.0007.0006925.0007.0006925.0014.011772.0201.0276995.0346.0408565.0533.022851.0312.043626.0651.070632.0921.026314.0263.056783.0457.08656.0679.020082.0138.036701.0304.056783.0422.032546.0187.06717.0298.101794.0429.022159.0083.042241.0201.065093.0263.051935.0139.105256.0194.158577.0215.007617 0 .013849.0028.020774.0028H17.3074c.25 0 .4799-.1344.6024-.3518.1233-.2167.1198-.4833-.0083-.6973z" clip-rule="evenodd"/>
</svg>
