<svg xmlns="http://www.w3.org/2000/svg" fill="none" viewBox="0 0 17 16">
  <path fill="#495057" fill-rule="evenodd" d="M7.146 12.8C3.61148 12.8.746002 9.93445.746002 6.39962.746002 2.86542 3.61161 0 7.146 0c3.5344 0 6.4 2.86542 6.4 6.39962 0 1.63824-.6155 3.13273-1.6278 4.26478l4.6196 4.2232c.2609.2385.279.6434.0405.9042-.2385.2609-.6433.2791-.9042.0406l-4.7038-4.3003C9.90333 12.3285 8.57971 12.8 7.146 12.8zm3.4995-2.6628c-.0476.03-.0921.0668-.1319.1103-.0103.0113-.0202.0229-.0295.0347-.89637.7715-2.06281 1.2378-3.33812 1.2378-2.82759 0-5.12-2.29247-5.12-5.12038 0-2.82726 2.29251-5.11962 5.12-5.11962S12.266 3.57236 12.266 6.39962c0 1.47445-.6232 2.80334-1.6205 3.73758z" clip-rule="evenodd"/>
</svg>