<svg xmlns="http://www.w3.org/2000/svg" fill="none" viewBox="0 0 21 20">
  <path fill="#495057" fill-rule="evenodd" d="M10.7843 17.6911c-.0832 0-.1669-.0015-.2512-.0045l-1.14198 1.7398c-.29436.4485-.85136.6619-1.36876.5128-1.57061-.4468-2.99984-1.2672-4.17097-2.3854-.39236-.3758-.48528-.9658-.23928-1.4461l.94923-1.8527c-.08611-.137-.16745-.2764-.24388-.4182l-2.09794-.1112c-.53621-.0256-1.00073-.396-1.13432-.9208-.198409-.7871-.300898-1.588-.300898-2.395 0-.80703.102489-1.60801.301338-2.39679.13315-.52308.59767-.89347 1.12985-.91892l2.10197-.1114c.07643-.14173.15777-.28115.24388-.41813l-.94927-1.85278c-.24596-.4802-.15304-1.07027.24024-1.44696C5.02252 2.14759 6.45175 1.32716 8.0197.881125c.52006-.149927 1.07706.06348 1.37137.511945L10.5331 3.1329c.0843-.00293.168-.00442.2512-.00442.0832 0 .1669.00149.2512.00442l1.142-1.73975c.2944-.448576.8511-.661607 1.3697-.512753 1.5699.446863 2.9991 1.267373 4.17 2.385303.3919.37539.4839.96394.2393 1.44616l-.9493 1.85287c.0858.1367.167.27605.2436.41795l2.0984.11122c.5354.02571 1.0006.39613 1.1342.92086.1984.78703.3009 1.58801.3009 2.39504 0 .807-.1025 1.6079-.3013 2.3967-.1332.523-.5984.8934-1.1299.9189l-2.1023.1115c-.0766.1419-.1578.2812-.2436.4179l.9507 1.8557c.2432.4794.1512 1.0679-.2416 1.4442-1.17 1.1171-2.5992 1.9376-4.1674 2.384-.5203.1493-1.077-.0637-1.3714-.5122l-1.142-1.7399c-.0843.003-.168.0045-.2512.0045zm-2.56859.6698l1.25752-1.9157c.15933-.2428.43979-.3775.72887-.3502.2007.019.3946.0287.5822.0287.1876 0 .3815-.0097.5822-.0287.2891-.0273.5696.1074.7289.3502l1.2577 1.9159c1.1499-.3636 2.2034-.9669 3.0924-1.7654l-1.0441-2.0378c-.1344-.2624-.1102-.5781.0627-.8169.2252-.3111.4178-.641.5761-.9878.1211-.2656.3799-.4418.6714-.4573l2.3107-.1224c.1287-.5829.1947-1.1721.1947-1.7637 0-.59208-.0661-1.18162-.1946-1.76372l-2.3108-.12246c-.2915-.01545-.5503-.19167-.6714-.45725-.1583-.3468-.3509-.67674-.5761-.98782-.1729-.23883-.1971-.55449-.0627-.81689l1.0441-2.03778c-.8893-.7985-1.9421-1.40152-3.0925-1.76545l-1.2576 1.91595c-.1593.24272-.4398.37746-.7289.35015-.2007-.01897-.3946-.02873-.5822-.02873-.1876 0-.3815.00976-.5822.02873-.28908.02731-.56954-.10743-.72887-.35015l-1.25755-1.9158c-1.15021.36359-2.20355.96682-3.09255 1.76526l1.04408 2.03782c.13444.2624.11022.57806-.06268.81689-.22679.31326-.41943.64291-.5755.98656-.12092.26625-.38003.44303-.67205.45851l-2.31069.12245c-.12871.5829-.19467 1.17204-.19467 1.76373 0 .592.06605 1.1816.19463 1.7637l2.31073.1224c.29202.0155.55113.1923.67205.4585.15607.3437.34871.6733.5755.9866.1729.2388.19712.5545.06268.8169l-1.04406 2.0378c.88899.7982 1.94147 1.4011 3.09256 1.7652zm-1.0753-7.9511c0-2.01254 1.6314-3.64393 3.64389-3.64393 2.0125 0 3.6439 1.63139 3.6439 3.64393 0 2.0125-1.6314 3.6439-3.6439 3.6439-2.01249 0-3.64389-1.6314-3.64389-3.6439zm1.56733 0c0 1.1469.92968 2.0766 2.07656 2.0766 1.1469 0 2.0766-.9297 2.0766-2.0766 0-1.14693-.9297-2.07661-2.0766-2.07661-1.14688 0-2.07656.92968-2.07656 2.07661z" clip-rule="evenodd"/>
</svg>
